<svg viewBox="0 0 16 16" xmlns="http://www.w3.org/2000/svg" width="64" height="64">
    <rect x="0" y="0" width="16" height="16" fill="transparent"/>

    <rect x="0" y="7.5" width="16" height="7.2" fill="#666666" rx="1.14" ry="1.14"/>

    <g fill="#BBBBBB">
        <rect x="0.65" y="8.15" width="1.5" height="1.5" rx="0.4" />
        <rect x="2.80" y="8.15" width="1.5" height="1.5" rx="0.4" />
        <rect x="4.95" y="8.15" width="1.5" height="1.5" rx="0.4" />
        <rect x="7.10" y="8.15" width="1.5" height="1.5" rx="0.4" />
        <rect x="9.25" y="8.15" width="1.5" height="1.5" rx="0.4" />
        <rect x="11.40" y="8.15" width="1.5" height="1.5" rx="0.4" />
        <rect x="13.55" y="8.15" width="1.5" height="1.5" rx="0.4" />

        <rect x="0.65" y="10.30" width="1.5" height="1.5" rx="0.4" />
        <rect x="2.80" y="10.30" width="1.5" height="1.5" rx="0.4" />
        <rect x="4.95" y="10.30" width="1.5" height="1.5" rx="0.4" />
        <rect x="7.10" y="10.30" width="1.5" height="1.5" rx="0.4" />
        <rect x="9.25" y="10.30" width="1.5" height="1.5" rx="0.4" />
        <rect x="11.40" y="10.30" width="1.5" height="1.5" rx="0.4" />
        <rect x="13.55" y="10.30" width="1.5" height="1.5" rx="0.4" />

        <rect x="0.65" y="12.45" width="1.5" height="1.5" rx="0.4" />
        <rect x="2.80" y="12.45" width="1.5" height="1.5" rx="0.4" />
        
        <rect x="4.95" y="12.45" width="5.8" height="1.5" rx="0.4"/>
        
        <rect x="11.40" y="12.45" width="1.5" height="1.5" rx="0.4" />
        <rect x="13.55" y="12.45" width="1.5" height="1.5" rx="0.4" />
    </g>

    <circle cx="8" cy="6" r="4.57" fill="#FFC107"/>
    <circle cx="6.29" cy="4.86" r="0.86" fill="#000000"/>
    <circle cx="9.71" cy="4.86" r="0.86" fill="#000000"/>
    <path d="M 5.5 7.21 Q 8 8.7 10.5 7.21 L 10.5 8.21 Q 8 9.7 5.5 8.21 Z" fill="#000000"/>
</svg>